{
  "accessors": [
    {
      "bufferView": 2,
      "componentType": 5126,
      "count": 323,
      "max": [
        147.80697631835938,
        -471.76959228515625,
        330.1992492675781
      ],
      "min": [
        102.80696868896484,
        -790.7695922851563,
        -942.80078125
      ],
      "type": "VEC3"
    },
    {
      "bufferView": 2,
      "byteOffset": 3876,
      "componentType": 5126,
      "count": 323,
      "max": [
        1.0,
        1.0,
        1.0
      ],
      "min": [
        -1.0,
        -1.0,
        -1.0
      ],
      "type": "VEC3"
    },
    {
      "bufferView": 1,
      "componentType": 5126,
      "count": 323,
      "max": [
        0.7189599871635437,
        0.9999799728393555
      ],
      "min": [
        0.0,
        0.0
      ],
      "type": "VEC2"
    },
    {
      "bufferView": 0,
      "componentType": 5125,
      "count": 435,
      "type": "SCALAR"
    },
    {
      "bufferView": 2,
      "byteOffset": 7752,
      "componentType": 5126,
      "count": 4663,
      "max": [
        236.335205078125,
        59.406681060791016,
        608.9654541015625
      ],
      "min": [
        -227.61447143554688,
        -981.5807495117188,
        -188.85867309570313
      ],
      "type": "VEC3"
    },
    {
      "bufferView": 2,
      "byteOffset": 63708,
      "componentType": 5126,
      "count": 4663,
      "max": [
        0.999825119972229,
        0.999167263507843,
        0.9998003840446472
      ],
      "min": [
        -0.9991862773895264,
        -0.9960508346557617,
        -0.9949365258216858
      ],
      "type": "VEC3"
    },
    {
      "bufferView": 1,
      "byteOffset": 2584,
      "componentType": 5126,
      "count": 4663,
      "max": [
        0.9967399835586548,
        0.9928100109100342
      ],
      "min": [
        0.0,
        0.0
      ],
      "type": "VEC2"
    },
    {
      "bufferView": 0,
      "byteOffset": 1740,
      "componentType": 5125,
      "count": 5979,
      "type": "SCALAR"
    },
    {
      "bufferView": 2,
      "byteOffset": 119664,
      "componentType": 5126,
      "count": 727,
      "max": [
        167.2581024169922,
        -91.41187286376953,
        483.5697326660156
      ],
      "min": [
        -9.618780136108398,
        -831.8411865234375,
        -49.5040397644043
      ],
      "type": "VEC3"
    },
    {
      "bufferView": 2,
      "byteOffset": 128388,
      "componentType": 5126,
      "count": 727,
      "max": [
        0.9993550181388855,
        0.9730728268623352,
        0.992119550704956
      ],
      "min": [
        -0.9964964389801025,
        -0.995746910572052,
        -0.9925083518028259
      ],
      "type": "VEC3"
    },
    {
      "bufferView": 1,
      "byteOffset": 39888,
      "componentType": 5126,
      "count": 727,
      "max": [
        0.9768700003623962,
        0.92781001329422
      ],
      "min": [
        0.016270000487565994,
        0.23360000550746918
      ],
      "type": "VEC2"
    },
    {
      "bufferView": 0,
      "byteOffset": 25656,
      "componentType": 5125,
      "count": 966,
      "type": "SCALAR"
    }
  ],
  "asset": {
    "extras": {
      "author": "gorkystyle (https://sketchfab.com/gorkystyle)",
      "license": "CC-BY-4.0 (http://creativecommons.org/licenses/by/4.0/)",
      "source": "https://sketchfab.com/3d-models/sephiroth-low-poly-model-d5f66e424c1d42f2883037e2bc87b0cc",
      "title": "Sephiroth low-poly model"
    },
    "generator": "Sketchfab-13.88.0",
    "version": "2.0"
  },
  "bufferViews": [
    {
      "buffer": 0,
      "byteLength": 29520,
      "name": "floatBufferViews",
      "target": 34963
    },
    {
      "buffer": 0,
      "byteLength": 45704,
      "byteOffset": 29520,
      "byteStride": 8,
      "name": "floatBufferViews",
      "target": 34962
    },
    {
      "buffer": 0,
      "byteLength": 137112,
      "byteOffset": 75224,
      "byteStride": 12,
      "name": "floatBufferViews",
      "target": 34962
    }
  ],
  "buffers": [
    {
      "byteLength": 212336,
      "uri": "scene.bin"
    }
  ],
  "extensionsUsed": [
    "KHR_materials_unlit"
  ],
  "images": [
    {
      "uri": "textures/material_baseColor.png"
    },
    {
      "uri": "textures/Seferoth_baseColor.png"
    },
    {
      "uri": "textures/material_2_baseColor.png"
    }
  ],
  "materials": [
    {
      "doubleSided": true,
      "extensions": {
        "KHR_materials_unlit": {}
      },
      "name": "material",
      "pbrMetallicRoughness": {
        "baseColorTexture": {
          "index": 0
        },
        "metallicFactor": 0.0
      }
    },
    {
      "doubleSided": true,
      "extensions": {
        "KHR_materials_unlit": {}
      },
      "name": "Seferoth",
      "pbrMetallicRoughness": {
        "baseColorTexture": {
          "index": 1
        },
        "metallicFactor": 0.0
      }
    },
    {
      "doubleSided": true,
      "extensions": {
        "KHR_materials_unlit": {}
      },
      "name": "material_2",
      "pbrMetallicRoughness": {
        "baseColorTexture": {
          "index": 2
        },
        "metallicFactor": 0.0
      }
    }
  ],
  "meshes": [
    {
      "name": "sack_0",
      "primitives": [
        {
          "attributes": {
            "NORMAL": 1,
            "POSITION": 0,
            "TEXCOORD_0": 2
          },
          "indices": 3,
          "material": 0,
          "mode": 4
        }
      ]
    },
    {
      "name": "sack_1",
      "primitives": [
        {
          "attributes": {
            "NORMAL": 5,
            "POSITION": 4,
            "TEXCOORD_0": 6
          },
          "indices": 7,
          "material": 1,
          "mode": 4
        }
      ]
    },
    {
      "name": "sack_2",
      "primitives": [
        {
          "attributes": {
            "NORMAL": 9,
            "POSITION": 8,
            "TEXCOORD_0": 10
          },
          "indices": 11,
          "material": 2,
          "mode": 4
        }
      ]
    }
  ],
  "nodes": [
    {
      "children": [
        1
      ],
      "matrix": [
        0.9993725419044495,
        -7.864576010983683e-18,
        0.03541890159249306,
        0.0,
        0.03541890159249306,
        2.2190528124009778e-16,
        -0.9993725419044495,
        0.0,
        0.0,
        1.0,
        2.220446049250313e-16,
        0.0,
        0.0,
        0.0,
        0.0,
        1.0
      ],
      "name": "Sketchfab_model"
    },
    {
      "children": [
        2
      ],
      "name": "Root"
    },
    {
      "children": [
        3,
        4,
        5
      ],
      "matrix": [
        0.29704,
        0.30552000000000007,
        0.0013700000000000003,
        0.0,
        -0.16295000000000004,
        0.16005000000000003,
        -0.35974,
        0.0,
        -0.25844,
        0.25023999999999996,
        0.22840000000000005,
        0.0,
        0.0,
        0.0,
        0.0,
        1.0
      ],
      "name": "sack"
    },
    {
      "mesh": 0,
      "name": "sack_0"
    },
    {
      "mesh": 1,
      "name": "sack_1"
    },
    {
      "mesh": 2,
      "name": "sack_2"
    }
  ],
  "samplers": [
    {
      "magFilter": 9729,
      "minFilter": 9987,
      "wrapS": 10497,
      "wrapT": 10497
    }
  ],
  "scene": 0,
  "scenes": [
    {
      "name": "Sketchfab_Scene",
      "nodes": [
        0
      ]
    }
  ],
  "textures": [
    {
      "sampler": 0,
      "source": 0
    },
    {
      "sampler": 0,
      "source": 1
    },
    {
      "sampler": 0,
      "source": 2
    }
  ]
}
