{
  "accessors": [
    {
      "bufferView": 2,
      "componentType": 5126,
      "count": 1670,
      "max": [
        0.3963190019130707,
        0.29455599188804626,
        1.587499976158142
      ],
      "min": [
        -0.22044800221920013,
        -0.39017799496650696,
        0.05228300020098686
      ],
      "type": "VEC3"
    },
    {
      "bufferView": 2,
      "byteOffset": 20040,
      "componentType": 5126,
      "count": 1670,
      "max": [
        0.9991952776908875,
        0.9992641806602478,
        0.9996597766876221
      ],
      "min": [
        -0.9994795322418213,
        -0.9992724657058716,
        -0.9984633922576904
      ],
      "type": "VEC3"
    },
    {
      "bufferView": 1,
      "componentType": 5126,
      "count": 1670,
      "max": [
        2.9948740005493164,
        2.147645950317383
      ],
      "min": [
        0.004255999810993671,
        -1.1209720373153687
      ],
      "type": "VEC2"
    },
    {
      "bufferView": 0,
      "componentType": 5125,
      "count": 3978,
      "type": "SCALAR"
    },
    {
      "bufferView": 2,
      "byteOffset": 40080,
      "componentType": 5126,
      "count": 510,
      "max": [
        0.35016000270843506,
        0.3230290114879608,
        1.0462440252304077
      ],
      "min": [
        -0.2561819851398468,
        -0.41123101115226746,
        -0.004563000053167343
      ],
      "type": "VEC3"
    },
    {
      "bufferView": 2,
      "byteOffset": 46200,
      "componentType": 5126,
      "count": 510,
      "max": [
        0.9964970946311951,
        0.9980352520942688,
        0.9499717354774475
      ],
      "min": [
        -0.978126049041748,
        -0.996508002281189,
        -1.0
      ],
      "type": "VEC3"
    },
    {
      "bufferView": 1,
      "byteOffset": 13360,
      "componentType": 5126,
      "count": 510,
      "max": [
        -0.021525999531149864,
        -0.009138000197708607
      ],
      "min": [
        -1.0026999711990356,
        -0.9932900071144104
      ],
      "type": "VEC2"
    },
    {
      "bufferView": 0,
      "byteOffset": 15912,
      "componentType": 5125,
      "count": 1290,
      "type": "SCALAR"
    }
  ],
  "asset": {
    "extras": {
      "author": "mrremmington (https://sketchfab.com/mrremmington)",
      "license": "CC-BY-4.0 (http://creativecommons.org/licenses/by/4.0/)",
      "source": "https://sketchfab.com/3d-models/tifa-ac-dissidia-duodecim-ce54948fde7b4679b257a7cd9bff5e92",
      "title": "Tifa AC - Dissidia Duodecim"
    },
    "generator": "Sketchfab-16.14.0",
    "version": "2.0"
  },
  "bufferViews": [
    {
      "buffer": 0,
      "byteLength": 21072,
      "name": "floatBufferViews",
      "target": 34963
    },
    {
      "buffer": 0,
      "byteLength": 17440,
      "byteOffset": 21072,
      "byteStride": 8,
      "name": "floatBufferViews",
      "target": 34962
    },
    {
      "buffer": 0,
      "byteLength": 52320,
      "byteOffset": 38512,
      "byteStride": 12,
      "name": "floatBufferViews",
      "target": 34962
    }
  ],
  "buffers": [
    {
      "byteLength": 90832,
      "uri": "scene.bin"
    }
  ],
  "extensionsRequired": [
    "KHR_materials_pbrSpecularGlossiness"
  ],
  "extensionsUsed": [
    "KHR_materials_pbrSpecularGlossiness"
  ],
  "images": [
    {
      "uri": "textures/CUsersChrisDesktopTifadiss_00.png_diffuse.png"
    },
    {
      "uri": "textures/CUsersChrisDesktopTifadiss_01.png_diffuse.png"
    }
  ],
  "materials": [
    {
      "doubleSided": true,
      "extensions": {
        "KHR_materials_pbrSpecularGlossiness": {
          "diffuseFactor": [
            1.0,
            1.0,
            1.0,
            1.0
          ],
          "diffuseTexture": {
            "index": 0
          },
          "glossinessFactor": 0.4,
          "specularFactor": [
            0.0,
            0.0,
            0.0
          ]
        }
      },
      "name": "CUsersChrisDesktopTifadiss_00.png"
    },
    {
      "doubleSided": true,
      "extensions": {
        "KHR_materials_pbrSpecularGlossiness": {
          "diffuseFactor": [
            1.0,
            1.0,
            1.0,
            1.0
          ],
          "diffuseTexture": {
            "index": 1
          },
          "glossinessFactor": 1.0,
          "specularFactor": [
            0.0,
            0.0,
            0.0
          ]
        }
      },
      "name": "CUsersChrisDesktopTifadiss_01.png"
    }
  ],
  "meshes": [
    {
      "name": "Object_0",
      "primitives": [
        {
          "attributes": {
            "NORMAL": 1,
            "POSITION": 0,
            "TEXCOORD_0": 2
          },
          "indices": 3,
          "material": 0,
          "mode": 4
        }
      ]
    },
    {
      "name": "Object_1",
      "primitives": [
        {
          "attributes": {
            "NORMAL": 5,
            "POSITION": 4,
            "TEXCOORD_0": 6
          },
          "indices": 7,
          "material": 1,
          "mode": 4
        }
      ]
    }
  ],
  "nodes": [
    {
      "children": [
        1
      ],
      "matrix": [
        1.1355937719345093,
        0.0,
        0.0,
        0.0,
        0.0,
        2.521524704445242e-16,
        -1.1355937719345093,
        0.0,
        0.0,
        1.1355937719345093,
        2.521524704445242e-16,
        0.0,
        0.0,
        0.0,
        0.0,
        1.0
      ],
      "name": "Sketchfab_model"
    },
    {
      "children": [
        2,
        3
      ],
      "name": "Tifa.obj.cleaner.materialmerger.gles"
    },
    {
      "mesh": 0,
      "name": "Object_2"
    },
    {
      "mesh": 1,
      "name": "Object_3"
    }
  ],
  "samplers": [
    {
      "magFilter": 9729,
      "minFilter": 9987,
      "wrapS": 10497,
      "wrapT": 10497
    }
  ],
  "scene": 0,
  "scenes": [
    {
      "name": "Sketchfab_Scene",
      "nodes": [
        0
      ]
    }
  ],
  "textures": [
    {
      "sampler": 0,
      "source": 0
    },
    {
      "sampler": 0,
      "source": 1
    }
  ]
}
