{
  "accessors": [
    {
      "bufferView": 2,
      "componentType": 5126,
      "count": 354,
      "max": [
        20.999990463256836,
        34.509220123291016,
        1.0
      ],
      "min": [
        -43.411128997802734,
        -55.0,
        -102.10462951660156
      ],
      "type": "VEC3"
    },
    {
      "bufferView": 2,
      "byteOffset": 4248,
      "componentType": 5126,
      "count": 354,
      "max": [
        0.992780864238739,
        0.9992422461509705,
        0.9419171810150146
      ],
      "min": [
        -0.9998325109481812,
        -0.9982234835624695,
        -0.9273813366889954
      ],
      "type": "VEC3"
    },
    {
      "bufferView": 1,
      "componentType": 5126,
      "count": 354,
      "max": [
        0.700760006904602,
        0.5143499970436096
      ],
      "min": [
        0.355679988861084,
        0.3871699869632721
      ],
      "type": "VEC2"
    },
    {
      "bufferView": 0,
      "componentType": 5125,
      "count": 426,
      "type": "SCALAR"
    },
    {
      "bufferView": 2,
      "byteOffset": 8496,
      "componentType": 5126,
      "count": 354,
      "max": [
        23.090999603271484,
        36.34431838989258,
        3.3049299716949463
      ],
      "min": [
        -45.65380096435547,
        -57.26272964477539,
        -104.14507293701172
      ],
      "type": "VEC3"
    },
    {
      "bufferView": 2,
      "byteOffset": 12744,
      "componentType": 5126,
      "count": 354,
      "max": [
        0.9993042945861816,
        0.9984396696090698,
        0.9328621029853821
      ],
      "min": [
        -0.9919062256813049,
        -0.999197244644165,
        -0.9297635555267334
      ],
      "type": "VEC3"
    },
    {
      "bufferView": 1,
      "byteOffset": 2832,
      "componentType": 5126,
      "count": 354,
      "max": [
        0.700760006904602,
        0.5143499970436096
      ],
      "min": [
        0.355679988861084,
        0.3871699869632721
      ],
      "type": "VEC2"
    },
    {
      "bufferView": 0,
      "byteOffset": 1704,
      "componentType": 5125,
      "count": 426,
      "type": "SCALAR"
    },
    {
      "bufferView": 2,
      "byteOffset": 16992,
      "componentType": 5126,
      "count": 130,
      "max": [
        34.40996170043945,
        69.66417694091797,
        159.5325927734375
      ],
      "min": [
        -31.777280807495117,
        -84.91700744628906,
        -934.2931518554688
      ],
      "type": "VEC3"
    },
    {
      "bufferView": 2,
      "byteOffset": 18552,
      "componentType": 5126,
      "count": 130,
      "max": [
        0.9974097609519958,
        0.9847543239593506,
        0.9998480677604675
      ],
      "min": [
        -0.9502135515213013,
        -0.9819738268852234,
        -0.999929666519165
      ],
      "type": "VEC3"
    },
    {
      "bufferView": 1,
      "byteOffset": 5664,
      "componentType": 5126,
      "count": 130,
      "max": [
        0.9822800159454346,
        0.9809799790382385
      ],
      "min": [
        0.01565999910235405,
        0.014019999653100967
      ],
      "type": "VEC2"
    },
    {
      "bufferView": 0,
      "byteOffset": 3408,
      "componentType": 5125,
      "count": 594,
      "type": "SCALAR"
    },
    {
      "bufferView": 2,
      "byteOffset": 20112,
      "componentType": 5126,
      "count": 109,
      "max": [
        36.49163055419922,
        71.7759017944336,
        161.26812744140625
      ],
      "min": [
        -33.858951568603516,
        -87.02871704101563,
        -937.260498046875
      ],
      "type": "VEC3"
    },
    {
      "bufferView": 2,
      "byteOffset": 21420,
      "componentType": 5126,
      "count": 109,
      "max": [
        0.948900580406189,
        0.9819208383560181,
        0.999930739402771
      ],
      "min": [
        -0.9978384375572205,
        -0.9846945405006409,
        -0.9996693134307861
      ],
      "type": "VEC3"
    },
    {
      "bufferView": 1,
      "byteOffset": 6704,
      "componentType": 5126,
      "count": 109,
      "max": [
        0.9822800159454346,
        0.9809799790382385
      ],
      "min": [
        0.01565999910235405,
        0.014019999653100967
      ],
      "type": "VEC2"
    },
    {
      "bufferView": 0,
      "byteOffset": 5784,
      "componentType": 5125,
      "count": 474,
      "type": "SCALAR"
    },
    {
      "bufferView": 2,
      "byteOffset": 22728,
      "componentType": 5126,
      "count": 1955,
      "max": [
        92.35452270507813,
        129.71652221679688,
        42.75236892700195
      ],
      "min": [
        -118.2654037475586,
        -60.791019439697266,
        -226.92227172851563
      ],
      "type": "VEC3"
    },
    {
      "bufferView": 2,
      "byteOffset": 46188,
      "componentType": 5126,
      "count": 1955,
      "max": [
        0.9897343516349792,
        0.996762752532959,
        0.9997485876083374
      ],
      "min": [
        -0.9960367679595947,
        -0.998879075050354,
        -0.9914420247077942
      ],
      "type": "VEC3"
    },
    {
      "bufferView": 1,
      "byteOffset": 7576,
      "componentType": 5126,
      "count": 1955,
      "max": [
        0.9954000115394592,
        0.4181700050830841
      ],
      "min": [
        0.0,
        0.0
      ],
      "type": "VEC2"
    },
    {
      "bufferView": 0,
      "byteOffset": 7680,
      "componentType": 5125,
      "count": 2259,
      "type": "SCALAR"
    },
    {
      "bufferView": 2,
      "byteOffset": 69648,
      "componentType": 5126,
      "count": 1779,
      "max": [
        93.47064971923828,
        130.5137481689453,
        44.508460998535156
      ],
      "min": [
        -119.84208679199219,
        -62.558650970458984,
        -228.33038330078125
      ],
      "type": "VEC3"
    },
    {
      "bufferView": 2,
      "byteOffset": 90996,
      "componentType": 5126,
      "count": 1779,
      "max": [
        0.9889761209487915,
        0.9986310601234436,
        0.9934300184249878
      ],
      "min": [
        -0.9889761209487915,
        -0.9968966841697693,
        -0.9997063279151917
      ],
      "type": "VEC3"
    },
    {
      "bufferView": 1,
      "byteOffset": 23216,
      "componentType": 5126,
      "count": 1779,
      "max": [
        0.9954000115394592,
        0.4181700050830841
      ],
      "min": [
        0.0,
        0.0
      ],
      "type": "VEC2"
    },
    {
      "bufferView": 0,
      "byteOffset": 16716,
      "componentType": 5125,
      "count": 1995,
      "type": "SCALAR"
    },
    {
      "bufferView": 2,
      "byteOffset": 112344,
      "componentType": 5126,
      "count": 3956,
      "max": [
        196.26502990722656,
        172.46115112304688,
        615.0744018554688
      ],
      "min": [
        -281.172119140625,
        -126.1043472290039,
        -253.14218139648438
      ],
      "type": "VEC3"
    },
    {
      "bufferView": 2,
      "byteOffset": 159816,
      "componentType": 5126,
      "count": 3956,
      "max": [
        0.9988012909889221,
        0.9983641505241394,
        0.9999365210533142
      ],
      "min": [
        -0.9988012909889221,
        -0.9989645481109619,
        -1.0
      ],
      "type": "VEC3"
    },
    {
      "bufferView": 1,
      "byteOffset": 37448,
      "componentType": 5126,
      "count": 3956,
      "max": [
        0.9957000017166138,
        0.9966400265693665
      ],
      "min": [
        0.0,
        0.0
      ],
      "type": "VEC2"
    },
    {
      "bufferView": 0,
      "byteOffset": 24696,
      "componentType": 5125,
      "count": 5601,
      "type": "SCALAR"
    },
    {
      "bufferView": 2,
      "byteOffset": 207288,
      "componentType": 5126,
      "count": 3418,
      "max": [
        198.45187377929688,
        174.38677978515625,
        616.56591796875
      ],
      "min": [
        -283.30462646484375,
        -127.93045043945313,
        -254.98736572265625
      ],
      "type": "VEC3"
    },
    {
      "bufferView": 2,
      "byteOffset": 248304,
      "componentType": 5126,
      "count": 3418,
      "max": [
        0.998830258846283,
        0.9994167685508728,
        0.9999982118606567
      ],
      "min": [
        -0.9988029599189758,
        -0.9983888268470764,
        -0.9999602437019348
      ],
      "type": "VEC3"
    },
    {
      "bufferView": 1,
      "byteOffset": 69096,
      "componentType": 5126,
      "count": 3418,
      "max": [
        0.9957000017166138,
        0.9966400265693665
      ],
      "min": [
        0.0,
        0.0
      ],
      "type": "VEC2"
    },
    {
      "bufferView": 0,
      "byteOffset": 47100,
      "componentType": 5125,
      "count": 4575,
      "type": "SCALAR"
    },
    {
      "bufferView": 2,
      "byteOffset": 289320,
      "componentType": 5126,
      "count": 354,
      "max": [
        20.921630859375,
        52.35734176635742,
        1.0584700107574463
      ],
      "min": [
        -43.11669921875,
        -42.293861389160156,
        -103.5790786743164
      ],
      "type": "VEC3"
    },
    {
      "bufferView": 2,
      "byteOffset": 293568,
      "componentType": 5126,
      "count": 354,
      "max": [
        0.9963926076889038,
        0.9885175228118896,
        0.931072473526001
      ],
      "min": [
        -0.995681643486023,
        -0.990105390548706,
        -0.9383630156517029
      ],
      "type": "VEC3"
    },
    {
      "bufferView": 1,
      "byteOffset": 96440,
      "componentType": 5126,
      "count": 354,
      "max": [
        0.700760006904602,
        0.5143499970436096
      ],
      "min": [
        0.355679988861084,
        0.3871699869632721
      ],
      "type": "VEC2"
    },
    {
      "bufferView": 0,
      "byteOffset": 65400,
      "componentType": 5125,
      "count": 426,
      "type": "SCALAR"
    },
    {
      "bufferView": 2,
      "byteOffset": 297816,
      "componentType": 5126,
      "count": 354,
      "max": [
        23.90144920349121,
        55.586700439453125,
        4.320590019226074
      ],
      "min": [
        -45.88850021362305,
        -45.04570007324219,
        -106.58216857910156
      ],
      "type": "VEC3"
    },
    {
      "bufferView": 2,
      "byteOffset": 302064,
      "componentType": 5126,
      "count": 354,
      "max": [
        0.9976500272750854,
        0.9903669953346252,
        0.9347380995750427
      ],
      "min": [
        -0.9974719285964966,
        -0.9969240427017212,
        -0.913960874080658
      ],
      "type": "VEC3"
    },
    {
      "bufferView": 1,
      "byteOffset": 99272,
      "componentType": 5126,
      "count": 354,
      "max": [
        0.700760006904602,
        0.5143499970436096
      ],
      "min": [
        0.355679988861084,
        0.3871699869632721
      ],
      "type": "VEC2"
    },
    {
      "bufferView": 0,
      "byteOffset": 67104,
      "componentType": 5125,
      "count": 426,
      "type": "SCALAR"
    }
  ],
  "asset": {
    "extras": {
      "author": "gorkystyle (https://sketchfab.com/gorkystyle)",
      "license": "CC-BY-4.0 (http://creativecommons.org/licenses/by/4.0/)",
      "source": "https://sketchfab.com/3d-models/cloud-low-poly-model-e054be3d9b8a409e8e384cdcf3cc5800",
      "title": "Cloud low-poly model"
    },
    "generator": "Sketchfab-13.88.0",
    "version": "2.0"
  },
  "bufferViews": [
    {
      "buffer": 0,
      "byteLength": 68808,
      "name": "floatBufferViews",
      "target": 34963
    },
    {
      "buffer": 0,
      "byteLength": 102104,
      "byteOffset": 68808,
      "byteStride": 8,
      "name": "floatBufferViews",
      "target": 34962
    },
    {
      "buffer": 0,
      "byteLength": 306312,
      "byteOffset": 170912,
      "byteStride": 12,
      "name": "floatBufferViews",
      "target": 34962
    }
  ],
  "buffers": [
    {
      "byteLength": 477224,
      "uri": "scene.bin"
    }
  ],
  "extensionsUsed": [
    "KHR_materials_unlit"
  ],
  "images": [
    {
      "uri": "textures/cloud_baseColor.png"
    },
    {
      "uri": "textures/bustersword_baseColor.png"
    }
  ],
  "materials": [
    {
      "doubleSided": true,
      "extensions": {
        "KHR_materials_unlit": {}
      },
      "name": "cloud",
      "pbrMetallicRoughness": {
        "baseColorTexture": {
          "index": 0
        },
        "metallicFactor": 0.0
      }
    },
    {
      "extensions": {
        "KHR_materials_unlit": {}
      },
      "name": "material",
      "pbrMetallicRoughness": {
        "baseColorFactor": [
          0.00859979772792199,
          0.0019309009087221506,
          0.0017541647460932001,
          1.0
        ],
        "metallicFactor": 0.0
      }
    },
    {
      "doubleSided": true,
      "extensions": {
        "KHR_materials_unlit": {}
      },
      "name": "bustersword",
      "pbrMetallicRoughness": {
        "baseColorTexture": {
          "index": 1
        },
        "metallicFactor": 0.0
      }
    }
  ],
  "meshes": [
    {
      "name": "rtat.001_0",
      "primitives": [
        {
          "attributes": {
            "NORMAL": 1,
            "POSITION": 0,
            "TEXCOORD_0": 2
          },
          "indices": 3,
          "material": 0,
          "mode": 4
        }
      ]
    },
    {
      "name": "rtat.001_1",
      "primitives": [
        {
          "attributes": {
            "NORMAL": 5,
            "POSITION": 4,
            "TEXCOORD_0": 6
          },
          "indices": 7,
          "material": 1,
          "mode": 4
        }
      ]
    },
    {
      "name": "rtck_0",
      "primitives": [
        {
          "attributes": {
            "NORMAL": 9,
            "POSITION": 8,
            "TEXCOORD_0": 10
          },
          "indices": 11,
          "material": 2,
          "mode": 4
        }
      ]
    },
    {
      "name": "rtck_1",
      "primitives": [
        {
          "attributes": {
            "NORMAL": 13,
            "POSITION": 12,
            "TEXCOORD_0": 14
          },
          "indices": 15,
          "material": 1,
          "mode": 4
        }
      ]
    },
    {
      "name": "rtao_0",
      "primitives": [
        {
          "attributes": {
            "NORMAL": 17,
            "POSITION": 16,
            "TEXCOORD_0": 18
          },
          "indices": 19,
          "material": 0,
          "mode": 4
        }
      ]
    },
    {
      "name": "rtao_1",
      "primitives": [
        {
          "attributes": {
            "NORMAL": 21,
            "POSITION": 20,
            "TEXCOORD_0": 22
          },
          "indices": 23,
          "material": 1,
          "mode": 4
        }
      ]
    },
    {
      "name": "rtam_0",
      "primitives": [
        {
          "attributes": {
            "NORMAL": 25,
            "POSITION": 24,
            "TEXCOORD_0": 26
          },
          "indices": 27,
          "material": 0,
          "mode": 4
        }
      ]
    },
    {
      "name": "rtam_1",
      "primitives": [
        {
          "attributes": {
            "NORMAL": 29,
            "POSITION": 28,
            "TEXCOORD_0": 30
          },
          "indices": 31,
          "material": 1,
          "mode": 4
        }
      ]
    },
    {
      "name": "rtat.000_0",
      "primitives": [
        {
          "attributes": {
            "NORMAL": 33,
            "POSITION": 32,
            "TEXCOORD_0": 34
          },
          "indices": 35,
          "material": 0,
          "mode": 4
        }
      ]
    },
    {
      "name": "rtat.000_1",
      "primitives": [
        {
          "attributes": {
            "NORMAL": 37,
            "POSITION": 36,
            "TEXCOORD_0": 38
          },
          "indices": 39,
          "material": 1,
          "mode": 4
        }
      ]
    }
  ],
  "nodes": [
    {
      "children": [
        1
      ],
      "matrix": [
        0.30875787138938904,
        0.0,
        0.0,
        0.0,
        0.0,
        6.855801957015052e-17,
        -0.30875787138938904,
        0.0,
        0.0,
        0.30875787138938904,
        6.855801957015052e-17,
        0.0,
        0.0,
        0.0,
        0.0,
        1.0
      ],
      "name": "Sketchfab_model"
    },
    {
      "children": [
        2,
        5,
        8,
        11,
        14
      ],
      "name": "Root"
    },
    {
      "children": [
        3,
        4
      ],
      "matrix": [
        0.008620000000000001,
        -0.0066900000000000015,
        0.0014200000000000005,
        0.0,
        0.006830000000000002,
        0.008360000000000001,
        -0.0021200000000000004,
        0.0,
        0.00021000000000000006,
        0.0025400000000000006,
        0.010700000000000003,
        0.0,
        2.67462,
        0.37954000000000004,
        -2.66535,
        1.0
      ],
      "name": "rtat.001"
    },
    {
      "mesh": 0,
      "name": "rtat.001_0"
    },
    {
      "mesh": 1,
      "name": "rtat.001_1"
    },
    {
      "children": [
        6,
        7
      ],
      "matrix": [
        0.0021300000000000004,
        -0.010590000000000002,
        0.0021000000000000003,
        0.0,
        0.004180000000000001,
        0.002780000000000001,
        0.009790000000000004,
        0.0,
        -0.009950000000000002,
        -0.0011000000000000003,
        0.0045600000000000016,
        0.0,
        -1.5654599999999999,
        1.39397,
        1.1941300000000001,
        1.0
      ],
      "name": "rtck"
    },
    {
      "mesh": 2,
      "name": "rtck_0"
    },
    {
      "mesh": 3,
      "name": "rtck_1"
    },
    {
      "children": [
        9,
        10
      ],
      "matrix": [
        0.011010000000000002,
        -0.0,
        0.0010400000000000003,
        0.0,
        0.0,
        -0.011050000000000003,
        -0.0,
        0.0,
        0.0010400000000000003,
        0.0,
        -0.011010000000000002,
        0.0,
        0.79829,
        0.45983,
        0.38120000000000004,
        1.0
      ],
      "name": "rtao"
    },
    {
      "mesh": 4,
      "name": "rtao_0"
    },
    {
      "mesh": 5,
      "name": "rtao_1"
    },
    {
      "children": [
        12,
        13
      ],
      "matrix": [
        0.010240000000000003,
        -0.004020000000000001,
        0.00020000000000000006,
        0.0,
        -0.004000000000000001,
        -0.010230000000000003,
        -0.0005900000000000001,
        0.0,
        0.00040000000000000013,
        0.00047000000000000015,
        -0.010980000000000002,
        0.0,
        0.81825,
        0.25701,
        -1.9185199999999998,
        1.0
      ],
      "name": "rtam"
    },
    {
      "mesh": 6,
      "name": "rtam_0"
    },
    {
      "mesh": 7,
      "name": "rtam_1"
    },
    {
      "children": [
        15,
        16
      ],
      "matrix": [
        -0.0013500000000000005,
        0.009430000000000003,
        -0.005510000000000001,
        0.0,
        0.010250000000000002,
        -0.0008100000000000003,
        -0.003910000000000001,
        0.0,
        -0.003760000000000001,
        -0.00561,
        -0.008680000000000002,
        0.0,
        -1.9090099999999999,
        1.19156,
        0.5023,
        1.0
      ],
      "name": "rtat.000"
    },
    {
      "mesh": 8,
      "name": "rtat.000_0"
    },
    {
      "mesh": 9,
      "name": "rtat.000_1"
    }
  ],
  "samplers": [
    {
      "magFilter": 9729,
      "minFilter": 9987,
      "wrapS": 10497,
      "wrapT": 10497
    }
  ],
  "scene": 0,
  "scenes": [
    {
      "name": "Sketchfab_Scene",
      "nodes": [
        0
      ]
    }
  ],
  "textures": [
    {
      "sampler": 0,
      "source": 0
    },
    {
      "sampler": 0,
      "source": 1
    }
  ]
}
