{
  "accessors": [
    {
      "bufferView": 2,
      "componentType": 5126,
      "count": 4752,
      "max": [
        226.9447479248047,
        164.99456787109375,
        740.9508666992188
      ],
      "min": [
        -233.8774871826172,
        -102.11042785644531,
        -120.4423828125
      ],
      "type": "VEC3"
    },
    {
      "bufferView": 2,
      "byteOffset": 57024,
      "componentType": 5126,
      "count": 4752,
      "max": [
        1.0,
        0.9998590350151062,
        0.9997660517692566
      ],
      "min": [
        -0.999846875667572,
        -0.9998722672462463,
        -0.9997660517692566
      ],
      "type": "VEC3"
    },
    {
      "bufferView": 1,
      "componentType": 5126,
      "count": 4752,
      "max": [
        0.9978700280189514,
        0.9987099766731262
      ],
      "min": [
        0.004550000187009573,
        0.005140000022947788
      ],
      "type": "VEC2"
    },
    {
      "bufferView": 0,
      "componentType": 5125,
      "count": 6216,
      "type": "SCALAR"
    },
    {
      "bufferView": 2,
      "byteOffset": 114048,
      "componentType": 5126,
      "count": 456,
      "max": [
        153.64840698242188,
        140.5909423828125,
        328.0727233886719
      ],
      "min": [
        43.8177490234375,
        39.79515075683594,
        246.74411010742188
      ],
      "type": "VEC3"
    },
    {
      "bufferView": 2,
      "byteOffset": 119520,
      "componentType": 5126,
      "count": 456,
      "max": [
        0.999599039554596,
        0.9569776058197021,
        0.9928368926048279
      ],
      "min": [
        -0.9993250966072083,
        -0.9693576693534851,
        -0.9962531924247742
      ],
      "type": "VEC3"
    },
    {
      "bufferView": 1,
      "byteOffset": 38016,
      "componentType": 5126,
      "count": 456,
      "max": [
        0.4934299886226654,
        0.2594499886035919
      ],
      "min": [
        0.37031999230384827,
        0.11665000021457672
      ],
      "type": "VEC2"
    },
    {
      "bufferView": 0,
      "byteOffset": 24864,
      "componentType": 5125,
      "count": 648,
      "type": "SCALAR"
    },
    {
      "bufferView": 2,
      "byteOffset": 124992,
      "componentType": 5126,
      "count": 972,
      "max": [
        -10.500309944152832,
        161.06277465820313,
        325.28387451171875
      ],
      "min": [
        -167.38046264648438,
        -142.6864013671875,
        151.81642150878906
      ],
      "type": "VEC3"
    },
    {
      "bufferView": 2,
      "byteOffset": 136656,
      "componentType": 5126,
      "count": 972,
      "max": [
        0.9948163032531738,
        0.9985837936401367,
        0.9887468218803406
      ],
      "min": [
        -0.915152370929718,
        -0.9985837936401367,
        -0.8813115358352661
      ],
      "type": "VEC3"
    },
    {
      "bufferView": 1,
      "byteOffset": 41664,
      "componentType": 5126,
      "count": 972,
      "max": [
        0.5490400195121765,
        0.1366499960422516
      ],
      "min": [
        0.4626300036907196,
        0.016839999705553055
      ],
      "type": "VEC2"
    },
    {
      "bufferView": 0,
      "byteOffset": 27456,
      "componentType": 5125,
      "count": 1296,
      "type": "SCALAR"
    },
    {
      "bufferView": 2,
      "byteOffset": 148320,
      "componentType": 5126,
      "count": 4898,
      "max": [
        209.74314880371094,
        266.568115234375,
        242.30369567871094
      ],
      "min": [
        -306.39410400390625,
        -349.239013671875,
        -302.9989318847656
      ],
      "type": "VEC3"
    },
    {
      "bufferView": 2,
      "byteOffset": 207096,
      "componentType": 5126,
      "count": 4898,
      "max": [
        0.9990255832672119,
        0.9996564388275146,
        0.9982789158821106
      ],
      "min": [
        -0.9983381032943726,
        -0.9999992847442627,
        -0.9999250173568726
      ],
      "type": "VEC3"
    },
    {
      "bufferView": 1,
      "byteOffset": 49440,
      "componentType": 5126,
      "count": 4898,
      "max": [
        0.9988200068473816,
        0.9928200244903564
      ],
      "min": [
        0.001990000018849969,
        0.005919999908655882
      ],
      "type": "VEC2"
    },
    {
      "bufferView": 0,
      "byteOffset": 32640,
      "componentType": 5125,
      "count": 6354,
      "type": "SCALAR"
    },
    {
      "bufferView": 2,
      "byteOffset": 265872,
      "componentType": 5126,
      "count": 6055,
      "max": [
        1.93163001537323,
        1.684999942779541,
        9.90034008026123
      ],
      "min": [
        -0.8990700244903564,
        -1.3141800165176392,
        -0.02881000004708767
      ],
      "type": "VEC3"
    },
    {
      "bufferView": 2,
      "byteOffset": 338532,
      "componentType": 5126,
      "count": 6055,
      "max": [
        0.9996582269668579,
        0.9999213218688965,
        1.0
      ],
      "min": [
        -0.9991422891616821,
        -0.9999252557754517,
        -1.0
      ],
      "type": "VEC3"
    },
    {
      "bufferView": 1,
      "byteOffset": 88624,
      "componentType": 5126,
      "count": 6055,
      "max": [
        1.0015100240707397,
        0.9987999796867371
      ],
      "min": [
        -0.0050200000405311584,
        -0.002689999993890524
      ],
      "type": "VEC2"
    },
    {
      "bufferView": 0,
      "byteOffset": 58056,
      "componentType": 5125,
      "count": 6183,
      "type": "SCALAR"
    }
  ],
  "asset": {
    "extras": {
      "author": "gorkystyle (https://sketchfab.com/gorkystyle)",
      "license": "CC-BY-4.0 (http://creativecommons.org/licenses/by/4.0/)",
      "source": "https://sketchfab.com/3d-models/avalanche-low-poly-model-ce3ce11c29ea46e9a7705e401af3f390",
      "title": "Avalanche low-poly model"
    },
    "generator": "Sketchfab-13.88.0",
    "version": "2.0"
  },
  "bufferViews": [
    {
      "buffer": 0,
      "byteLength": 82788,
      "name": "floatBufferViews",
      "target": 34963
    },
    {
      "buffer": 0,
      "byteLength": 137064,
      "byteOffset": 82788,
      "byteStride": 8,
      "name": "floatBufferViews",
      "target": 34962
    },
    {
      "buffer": 0,
      "byteLength": 411192,
      "byteOffset": 219852,
      "byteStride": 12,
      "name": "floatBufferViews",
      "target": 34962
    }
  ],
  "buffers": [
    {
      "byteLength": 631044,
      "uri": "scene.bin"
    }
  ],
  "extensionsUsed": [
    "KHR_materials_unlit"
  ],
  "images": [
    {
      "uri": "textures/material_baseColor.jpeg"
    },
    {
      "uri": "textures/Material.001_baseColor.png"
    },
    {
      "uri": "textures/material_2_baseColor.png"
    },
    {
      "uri": "textures/wege.001_baseColor.png"
    }
  ],
  "materials": [
    {
      "doubleSided": true,
      "extensions": {
        "KHR_materials_unlit": {}
      },
      "name": "material",
      "pbrMetallicRoughness": {
        "baseColorTexture": {
          "index": 0
        },
        "metallicFactor": 0.0
      }
    },
    {
      "doubleSided": true,
      "extensions": {
        "KHR_materials_unlit": {}
      },
      "name": "Material.001",
      "pbrMetallicRoughness": {
        "baseColorTexture": {
          "index": 1
        },
        "metallicFactor": 0.0
      }
    },
    {
      "doubleSided": true,
      "extensions": {
        "KHR_materials_unlit": {}
      },
      "name": "material_2",
      "pbrMetallicRoughness": {
        "baseColorTexture": {
          "index": 2
        },
        "metallicFactor": 0.0
      }
    },
    {
      "doubleSided": true,
      "extensions": {
        "KHR_materials_unlit": {}
      },
      "name": "wege.001",
      "pbrMetallicRoughness": {
        "baseColorTexture": {
          "index": 3
        },
        "metallicFactor": 0.0
      }
    },
    {
      "doubleSided": true,
      "extensions": {
        "KHR_materials_unlit": {}
      },
      "name": "wege",
      "pbrMetallicRoughness": {
        "baseColorTexture": {
          "index": 3
        },
        "metallicFactor": 0.0
      }
    }
  ],
  "meshes": [
    {
      "name": "rzao.001_0",
      "primitives": [
        {
          "attributes": {
            "NORMAL": 1,
            "POSITION": 0,
            "TEXCOORD_0": 2
          },
          "indices": 3,
          "material": 2,
          "mode": 4
        }
      ]
    },
    {
      "name": "rzao.001_1",
      "primitives": [
        {
          "attributes": {
            "NORMAL": 5,
            "POSITION": 4,
            "TEXCOORD_0": 6
          },
          "indices": 7,
          "material": 3,
          "mode": 4
        }
      ]
    },
    {
      "name": "rzao.001_2",
      "primitives": [
        {
          "attributes": {
            "NORMAL": 9,
            "POSITION": 8,
            "TEXCOORD_0": 10
          },
          "indices": 11,
          "material": 4,
          "mode": 4
        }
      ]
    },
    {
      "name": "rzbe.001_0",
      "primitives": [
        {
          "attributes": {
            "NORMAL": 13,
            "POSITION": 12,
            "TEXCOORD_0": 14
          },
          "indices": 15,
          "material": 1,
          "mode": 4
        }
      ]
    },
    {
      "name": "ruay.003_0",
      "primitives": [
        {
          "attributes": {
            "NORMAL": 17,
            "POSITION": 16,
            "TEXCOORD_0": 18
          },
          "indices": 19,
          "material": 0,
          "mode": 4
        }
      ]
    }
  ],
  "nodes": [
    {
      "children": [
        1
      ],
      "matrix": [
        1.0,
        -1.6081226229577292e-16,
        -3.5707495248565405e-32,
        0.0,
        0.0,
        2.220446049250313e-16,
        -1.0,
        0.0,
        1.6081226229577292e-16,
        1.0,
        2.220446049250313e-16,
        0.0,
        0.0,
        0.0,
        0.0,
        1.0
      ],
      "name": "Sketchfab_model"
    },
    {
      "children": [
        2,
        6,
        8
      ],
      "name": "Root"
    },
    {
      "children": [
        3,
        4,
        5
      ],
      "matrix": [
        0.011970000000000003,
        0.0,
        0.0,
        0.0,
        0.0,
        -0.011970000000000003,
        -0.0,
        0.0,
        0.0,
        0.0,
        -0.011830000000000004,
        0.0,
        -4.21782,
        0.60636,
        8.735769999999999,
        1.0
      ],
      "name": "rzao.001"
    },
    {
      "mesh": 0,
      "name": "rzao.001_0"
    },
    {
      "mesh": 1,
      "name": "rzao.001_1"
    },
    {
      "mesh": 2,
      "name": "rzao.001_2"
    },
    {
      "children": [
        7
      ],
      "matrix": [
        -0.008390000000000002,
        0.005920000000000002,
        -2.000000000000001e-05,
        0.0,
        0.003400000000000001,
        0.004800000000000001,
        -0.00842,
        0.0,
        0.004840000000000001,
        0.006890000000000002,
        0.0058800000000000015,
        0.0,
        4.52828,
        1.9167299999999998,
        1.9593199999999997,
        1.0
      ],
      "name": "rzbe.001"
    },
    {
      "mesh": 3,
      "name": "rzbe.001_0"
    },
    {
      "children": [
        9
      ],
      "name": "ruay.003"
    },
    {
      "mesh": 4,
      "name": "ruay.003_0"
    }
  ],
  "samplers": [
    {
      "magFilter": 9729,
      "minFilter": 9987,
      "wrapS": 10497,
      "wrapT": 10497
    }
  ],
  "scene": 0,
  "scenes": [
    {
      "name": "Sketchfab_Scene",
      "nodes": [
        0
      ]
    }
  ],
  "textures": [
    {
      "sampler": 0,
      "source": 0
    },
    {
      "sampler": 0,
      "source": 1
    },
    {
      "sampler": 0,
      "source": 2
    },
    {
      "sampler": 0,
      "source": 3
    }
  ]
}
