{
  "accessors": [
    {
      "bufferView": 2,
      "componentType": 5126,
      "count": 11714,
      "max": [
        398.2403869628906,
        343.832763671875,
        586.3280029296875
      ],
      "min": [
        -429.6905212402344,
        -140.01177978515625,
        -328.0560302734375
      ],
      "type": "VEC3"
    },
    {
      "bufferView": 2,
      "byteOffset": 140568,
      "componentType": 5126,
      "count": 11714,
      "max": [
        1.0,
        0.9996670484542847,
        0.999596893787384
      ],
      "min": [
        -1.0,
        -0.9999110698699951,
        -0.9996220469474792
      ],
      "type": "VEC3"
    },
    {
      "bufferView": 1,
      "componentType": 5126,
      "count": 11714,
      "max": [
        0.9982200264930725,
        0.9975000023841858
      ],
      "min": [
        0.0,
        0.0
      ],
      "type": "VEC2"
    },
    {
      "bufferView": 0,
      "componentType": 5125,
      "count": 15849,
      "type": "SCALAR"
    },
    {
      "bufferView": 2,
      "byteOffset": 281136,
      "componentType": 5126,
      "count": 1511,
      "max": [
        -272.90618896484375,
        157.4341278076172,
        239.63076782226563
      ],
      "min": [
        -430.0228576660156,
        -14.705570220947266,
        72.99651336669922
      ],
      "type": "VEC3"
    },
    {
      "bufferView": 2,
      "byteOffset": 299268,
      "componentType": 5126,
      "count": 1511,
      "max": [
        0.9403769373893738,
        0.9964693784713745,
        0.9992268085479736
      ],
      "min": [
        -0.9832274317741394,
        -0.7423892617225647,
        -0.7305077314376831
      ],
      "type": "VEC3"
    },
    {
      "bufferView": 1,
      "byteOffset": 93712,
      "componentType": 5126,
      "count": 1511,
      "max": [
        0.240789994597435,
        0.992139995098114
      ],
      "min": [
        -0.0004299999854993075,
        0.6584699749946594
      ],
      "type": "VEC2"
    },
    {
      "bufferView": 0,
      "byteOffset": 63396,
      "componentType": 5125,
      "count": 2220,
      "type": "SCALAR"
    },
    {
      "bufferView": 2,
      "byteOffset": 317400,
      "componentType": 5126,
      "count": 13693,
      "max": [
        400.8330383300781,
        346.5623474121094,
        588.104736328125
      ],
      "min": [
        -432.6742858886719,
        -142.7632293701172,
        -330.8369140625
      ],
      "type": "VEC3"
    },
    {
      "bufferView": 2,
      "byteOffset": 481716,
      "componentType": 5126,
      "count": 13693,
      "max": [
        0.9999570250511169,
        0.9999140501022339,
        0.9995220303535461
      ],
      "min": [
        -0.9999570250511169,
        -0.9996669292449951,
        -0.9999473690986633
      ],
      "type": "VEC3"
    },
    {
      "bufferView": 1,
      "byteOffset": 105800,
      "componentType": 5126,
      "count": 13693,
      "max": [
        0.9982200264930725,
        0.9975000023841858
      ],
      "min": [
        -0.0004299999854993075,
        0.0
      ],
      "type": "VEC2"
    },
    {
      "bufferView": 0,
      "byteOffset": 72276,
      "componentType": 5125,
      "count": 18177,
      "type": "SCALAR"
    }
  ],
  "asset": {
    "extras": {
      "author": "gorkystyle (https://sketchfab.com/gorkystyle)",
      "license": "CC-BY-4.0 (http://creativecommons.org/licenses/by/4.0/)",
      "source": "https://sketchfab.com/3d-models/barret-low-poly-model-f686712f67af4b49a20e0017401d6355",
      "title": "Barret low-poly model"
    },
    "generator": "Sketchfab-13.88.0",
    "version": "2.0"
  },
  "bufferViews": [
    {
      "buffer": 0,
      "byteLength": 144984,
      "name": "floatBufferViews",
      "target": 34963
    },
    {
      "buffer": 0,
      "byteLength": 215344,
      "byteOffset": 144984,
      "byteStride": 8,
      "name": "floatBufferViews",
      "target": 34962
    },
    {
      "buffer": 0,
      "byteLength": 646032,
      "byteOffset": 360328,
      "byteStride": 12,
      "name": "floatBufferViews",
      "target": 34962
    }
  ],
  "buffers": [
    {
      "byteLength": 1006360,
      "uri": "scene.bin"
    }
  ],
  "extensionsUsed": [
    "KHR_materials_unlit"
  ],
  "images": [
    {
      "uri": "textures/material_baseColor.png"
    },
    {
      "uri": "textures/material_1_baseColor.png"
    }
  ],
  "materials": [
    {
      "doubleSided": true,
      "extensions": {
        "KHR_materials_unlit": {}
      },
      "name": "material",
      "pbrMetallicRoughness": {
        "baseColorTexture": {
          "index": 0
        },
        "metallicFactor": 0.0
      }
    },
    {
      "doubleSided": true,
      "extensions": {
        "KHR_materials_unlit": {}
      },
      "name": "material_1",
      "pbrMetallicRoughness": {
        "baseColorTexture": {
          "index": 1
        },
        "metallicFactor": 0.0
      }
    },
    {
      "extensions": {
        "KHR_materials_unlit": {}
      },
      "name": "material_2",
      "pbrMetallicRoughness": {
        "baseColorFactor": [
          0.0,
          0.0,
          0.0,
          1.0
        ],
        "metallicFactor": 0.0
      }
    }
  ],
  "meshes": [
    {
      "name": "br_0",
      "primitives": [
        {
          "attributes": {
            "NORMAL": 1,
            "POSITION": 0,
            "TEXCOORD_0": 2
          },
          "indices": 3,
          "material": 0,
          "mode": 4
        }
      ]
    },
    {
      "name": "br_1",
      "primitives": [
        {
          "attributes": {
            "NORMAL": 5,
            "POSITION": 4,
            "TEXCOORD_0": 6
          },
          "indices": 7,
          "material": 1,
          "mode": 4
        }
      ]
    },
    {
      "name": "br_2",
      "primitives": [
        {
          "attributes": {
            "NORMAL": 9,
            "POSITION": 8,
            "TEXCOORD_0": 10
          },
          "indices": 11,
          "material": 2,
          "mode": 4
        }
      ]
    }
  ],
  "nodes": [
    {
      "children": [
        1
      ],
      "matrix": [
        1.0,
        0.0,
        0.0,
        0.0,
        0.0,
        2.220446049250313e-16,
        -1.0,
        0.0,
        0.0,
        1.0,
        2.220446049250313e-16,
        0.0,
        0.0,
        0.0,
        0.0,
        1.0
      ],
      "name": "Sketchfab_model"
    },
    {
      "children": [
        2
      ],
      "name": "Root"
    },
    {
      "children": [
        3,
        4,
        5
      ],
      "matrix": [
        0.0073300000000000014,
        -0.0008800000000000002,
        -4.000000000000002e-05,
        0.0,
        -0.0008800000000000002,
        -0.007320000000000002,
        -0.0003600000000000001,
        0.0,
        0.0,
        0.0003600000000000001,
        -0.0073700000000000015,
        0.0,
        0.0,
        0.0,
        4.30957,
        1.0
      ],
      "name": "br"
    },
    {
      "mesh": 0,
      "name": "br_0"
    },
    {
      "mesh": 1,
      "name": "br_1"
    },
    {
      "mesh": 2,
      "name": "br_2"
    }
  ],
  "samplers": [
    {
      "magFilter": 9729,
      "minFilter": 9987,
      "wrapS": 10497,
      "wrapT": 10497
    }
  ],
  "scene": 0,
  "scenes": [
    {
      "name": "Sketchfab_Scene",
      "nodes": [
        0
      ]
    }
  ],
  "textures": [
    {
      "sampler": 0,
      "source": 0
    },
    {
      "sampler": 0,
      "source": 1
    }
  ]
}
